<svg height="511pt" viewBox="1 -16 511.99975 511" width="511pt" xmlns="http://www.w3.org/2000/svg"><path d="m498.839844 183.363281-169.703125-169.703125c-17.546875-17.546875-46.097657-17.546875-63.640625 0l-176.777344 176.777344-28.285156 28.28125c-17.941406 17.945312-27.824219 41.800781-27.824219 67.175781s9.882813 49.234375 27.824219 67.175781l96.820312 96.820313h-142.253906c-8.285156 0-15 6.714844-15 15s6.714844 15 15 15h211.585938.003906.015625c25.375 0 49.230469-9.882813 67.175781-27.824219l28.28125-28.285156 176.777344-176.777344c17.546875-17.542968 17.546875-46.09375 0-63.640625zm-226.273438 247.488281c-12.277344 12.277344-28.601562 19.039063-45.960937 19.039063-17.363281 0-33.6875-6.761719-45.960938-19.039063l-98.996093-98.996093c-12.277344-12.273438-19.039063-28.597657-19.039063-45.960938 0-17.359375 6.761719-33.683593 19.039063-45.960937l17.675781-17.679688 190.921875 190.921875zm207.003906-207.449218c-.007812.015625-.015624.027344-.023437.042968-.234375.355469-.496094.695313-.761719 1.035157-.046875.058593-.089844.125-.136718.183593-.316407.386719-.65625.765626-1.019532 1.128907l-166.167968 166.167969-190.921876-190.917969 166.171876-166.167969c.359374-.363281.738281-.703125 1.128906-1.023438.050781-.039062.101562-.074218.152344-.113281.347656-.277343.703124-.542969 1.066406-.78125.003906-.003906.007812-.007812.015625-.011719 2.488281-1.636718 5.367187-2.460937 8.242187-2.460937 2.878906 0 5.753906.824219 8.246094 2.460937.003906.003907.007812.007813.011719.007813.367187.242187.722656.511719 1.070312.789063.046875.039062.101563.070312.148438.109374.390625.316407.769531.65625 1.132812 1.019532l169.703125 169.707031c.363282.363281.703125.738281 1.019532 1.128906.046874.054688.085937.117188.132812.175781.269531.339844.53125.683594.765625 1.042969.007813.011719.015625.027344.023437.039063 3.253907 4.972656 3.253907 11.464844 0 16.4375zm0 0"/></svg>