<?xml version="1.0" encoding="UTF-8" standalone="no"?>
<svg xmlns:ffdec="https://www.free-decompiler.com/flash" xmlns:xlink="http://www.w3.org/1999/xlink" ffdec:objectType="text" height="20.25px" width="232.0px" xmlns="http://www.w3.org/2000/svg">
  <g transform="matrix(1.0, 0.0, 0.0, 1.0, 151.2, 2.0)">
    <g transform="matrix(1.0, 0.0, 0.0, 1.0, -149.2, 0.0)">
      <use fill="#ffffff" height="20.25" transform="matrix(0.0156, 0.0, 0.0, 0.0156, 0.0, 12.4)" width="232.0" xlink:href="#font_Si_Kancil_l0"/>
      <use fill="#ffffff" height="20.25" transform="matrix(0.0156, 0.0, 0.0, 0.0156, 4.75, 12.4)" width="232.0" xlink:href="#font_Si_Kancil_a0"/>
      <use fill="#ffffff" height="20.25" transform="matrix(0.0156, 0.0, 0.0, 0.0156, 13.4, 12.4)" width="232.0" xlink:href="#font_Si_Kancil_s0"/>
      <use fill="#ffffff" height="20.25" transform="matrix(0.0156, 0.0, 0.0, 0.0156, 21.15, 12.4)" width="232.0" xlink:href="#font_Si_Kancil_s0"/>
      <use fill="#ffffff" height="20.25" transform="matrix(0.0156, 0.0, 0.0, 0.0156, 28.9, 12.4)" width="232.0" xlink:href="#font_Si_Kancil_o0"/>
    </g>
    <g transform="matrix(1.0, 0.0, 0.0, 1.0, -149.2, 0.0)">
      <use fill="#ffffff" height="20.25" transform="matrix(0.0156, 0.0, 0.0, 0.0156, 42.15, 12.4)" width="232.0" xlink:href="#font_Si_Kancil_t0"/>
      <use fill="#ffffff" height="20.25" transform="matrix(0.0156, 0.0, 0.0, 0.0156, 48.2, 12.4)" width="232.0" xlink:href="#font_Si_Kancil_o0"/>
      <use fill="#ffffff" height="20.25" transform="matrix(0.0156, 0.0, 0.0, 0.0156, 56.25, 12.4)" width="232.0" xlink:href="#font_Si_Kancil_o0"/>
      <use fill="#ffffff" height="20.25" transform="matrix(0.0156, 0.0, 0.0, 0.0156, 64.3, 12.4)" width="232.0" xlink:href="#font_Si_Kancil_l0"/>
    </g>
  </g>
  <defs>
    <g id="font_Si_Kancil_l0">
      <path d="M99.0 -616.5 Q98.0 -471.0 94.5 -328.0 91.0 -185.5 90.0 -39.0 94.0 -6.0 113.0 9.5 132.0 25.5 153.5 25.0 175.0 24.5 192.5 7.0 210.0 -10.0 212.0 -44.0 214.0 -190.5 217.0 -333.5 220.0 -476.0 221.0 -621.5 213.0 -649.0 195.0 -662.5 177.0 -676.0 157.5 -675.5 138.0 -675.0 122.0 -660.0 105.5 -645.0 99.0 -616.5" fill-rule="evenodd" stroke="none"/>
    </g>
    <g id="font_Si_Kancil_a0">
      <path d="M316.5 -349.0 Q314.5 -349.0 316.0 -349.0 317.5 -349.0 319.5 -348.0 317.5 -348.0 316.5 -349.0 M318.5 -273.5 Q314.5 -256.0 303.5 -231.5 293.0 -207.0 276.5 -188.0 260.0 -169.0 239.0 -161.5 218.0 -153.5 193.5 -170.0 174.0 -183.5 176.5 -206.0 179.0 -228.5 187.5 -246.0 217.0 -304.0 276.5 -325.5 293.0 -332.0 302.0 -334.0 311.5 -336.0 325.5 -337.0 324.5 -320.5 323.0 -304.5 321.5 -289.0 318.5 -273.5 M360.5 -461.0 L306.0 -457.5 Q291.0 -456.5 280.5 -454.5 257.0 -450.5 231.5 -440.0 206.0 -430.0 185.5 -417.5 127.0 -382.0 91.5 -325.0 56.5 -268.0 53.5 -199.5 51.0 -164.5 65.5 -135.5 80.0 -106.5 104.0 -85.0 128.0 -63.5 159.0 -50.5 190.5 -37.5 223.0 -35.5 256.0 -33.5 287.0 -44.0 318.5 -54.0 343.0 -78.5 345.0 -80.5 347.0 -83.5 L351.0 -88.0 Q359.5 -58.0 372.5 -35.5 386.0 -13.0 404.5 0.0 407.5 2.0 413.0 5.0 L425.5 10.0 438.5 15.0 Q444.5 17.5 446.5 18.5 475.0 21.5 494.5 11.0 514.0 0.0 521.0 -18.5 528.5 -36.5 521.0 -57.5 514.0 -78.5 490.5 -96.0 473.0 -103.5 464.5 -137.5 455.5 -172.0 452.5 -215.0 449.5 -258.0 450.0 -300.5 L450.5 -367.5 Q450.5 -373.5 451.5 -377.5 L450.5 -377.5 450.5 -378.5 Q444.5 -399.0 433.5 -411.0 423.0 -423.0 409.5 -428.0 401.5 -441.0 389.0 -448.5 377.0 -455.5 360.5 -461.0" fill-rule="evenodd" stroke="none"/>
    </g>
    <g id="font_Si_Kancil_s0">
      <path d="M347.0 -464.0 Q314.5 -478.0 280.0 -487.0 246.0 -495.5 208.0 -490.5 174.0 -485.5 146.0 -461.5 118.0 -438.0 101.5 -406.0 85.0 -373.5 84.0 -338.0 83.0 -302.0 104.5 -271.5 116.5 -254.0 137.0 -243.0 157.5 -232.5 182.0 -224.5 206.0 -217.0 230.0 -210.0 254.0 -202.5 273.5 -194.0 293.0 -185.0 304.5 -172.5 316.5 -159.5 314.5 -140.0 313.5 -128.0 305.0 -122.0 297.0 -115.5 286.0 -113.0 275.5 -110.5 263.5 -110.5 L244.5 -110.5 Q221.0 -110.5 212.5 -118.0 204.0 -126.0 199.0 -136.5 194.5 -147.5 188.5 -157.5 182.5 -168.0 164.0 -174.0 137.0 -181.0 116.5 -174.5 96.5 -168.0 85.5 -152.5 75.0 -137.0 75.5 -117.5 76.0 -98.0 90.0 -82.0 89.0 -83.0 90.0 -81.5 L92.0 -79.0 Q102.5 -64.5 113.5 -51.0 125.0 -38.0 139.5 -26.5 167.0 -8.0 200.5 -5.0 234.5 -2.0 266.0 -4.0 309.5 -7.0 349.5 -25.0 390.0 -43.0 415.0 -72.0 440.5 -101.5 442.0 -140.0 443.5 -179.0 408.5 -224.0 391.0 -242.5 369.0 -255.0 347.0 -267.0 323.0 -278.0 L275.5 -298.5 Q252.0 -308.0 231.5 -321.5 221.0 -327.5 218.5 -338.0 216.0 -348.0 219.0 -357.5 222.0 -366.5 229.0 -372.5 235.5 -379.0 244.5 -376.5 270.5 -369.5 293.5 -357.5 316.5 -345.0 342.0 -342.0 370.5 -348.0 382.5 -364.0 394.0 -380.0 393.0 -399.5 392.0 -418.5 379.5 -436.5 366.5 -454.5 347.0 -464.0" fill-rule="evenodd" stroke="none"/>
    </g>
    <g id="font_Si_Kancil_o0">
      <path d="M276.5 -372.5 Q300.0 -366.5 314.0 -346.0 327.5 -325.5 334.0 -299.5 340.0 -273.5 340.5 -246.5 341.0 -219.0 338.0 -197.5 336.0 -186.5 332.5 -171.5 328.5 -156.5 321.5 -143.5 314.5 -130.0 303.5 -120.0 293.0 -109.5 278.5 -107.5 246.0 -101.5 221.5 -114.5 197.5 -128.0 183.0 -152.0 168.0 -176.0 161.5 -207.0 154.5 -237.5 157.0 -267.0 159.5 -296.0 170.0 -320.0 180.0 -344.0 199.5 -354.5 205.0 -355.5 212.5 -360.0 220.0 -364.5 230.5 -368.5 240.5 -372.5 252.5 -374.5 264.0 -376.0 276.5 -372.5 M135.0 -461.0 Q96.5 -438.5 72.0 -394.0 48.0 -349.5 40.0 -297.5 31.5 -246.0 38.5 -194.5 45.0 -143.5 66.5 -107.5 L73.0 -96.0 86.5 -74.0 Q94.0 -61.5 103.0 -50.0 111.5 -38.0 119.0 -33.0 144.5 -14.5 164.0 -4.0 183.5 6.0 201.5 10.5 220.0 15.0 242.0 15.5 264.0 16.0 296.0 15.0 332.0 14.0 361.5 -8.0 391.0 -30.0 412.5 -61.0 434.0 -92.5 446.5 -128.5 459.0 -165.0 460.0 -195.5 461.0 -235.5 456.5 -278.5 452.5 -321.5 439.0 -360.5 425.0 -399.5 399.5 -432.5 374.0 -465.0 333.0 -484.5 312.5 -494.5 290.5 -498.0 268.5 -501.0 246.0 -506.0 225.5 -505.0 211.0 -498.0 196.5 -490.5 188.5 -479.5 174.0 -476.5 161.0 -472.0 147.5 -468.0 135.0 -461.0" fill-rule="evenodd" stroke="none"/>
    </g>
    <g id="font_Si_Kancil_t0">
      <path d="M47.0 -353.0 L79.0 -352.0 110.5 -350.0 Q114.5 -258.0 132.5 -170.0 150.5 -81.5 196.5 -2.0 217.0 18.5 239.0 22.0 261.0 26.0 278.0 15.5 295.0 5.5 302.5 -15.5 310.5 -36.5 302.0 -64.5 266.5 -125.5 252.0 -196.5 237.5 -267.0 233.5 -342.0 273.5 -338.5 313.5 -338.5 342.0 -345.0 357.0 -361.5 371.5 -377.5 372.5 -397.0 373.0 -416.5 359.5 -434.5 346.0 -452.5 318.5 -460.5 297.0 -460.5 275.5 -461.5 254.0 -462.5 231.5 -465.0 232.5 -501.5 233.0 -538.0 233.5 -574.5 234.5 -609.0 226.5 -637.0 208.5 -650.0 190.5 -663.5 171.0 -663.0 151.5 -662.5 135.0 -647.5 118.5 -632.5 112.5 -604.0 111.5 -571.5 111.0 -538.5 110.5 -506.0 109.5 -473.0 L81.0 -474.5 Q66.5 -475.0 52.0 -475.0 18.5 -473.0 1.0 -455.5 -16.5 -438.0 -17.0 -416.5 -17.5 -395.0 -1.5 -376.0 14.5 -357.0 47.0 -353.0" fill-rule="evenodd" stroke="none"/>
    </g>
  </defs>
</svg>
