<?xml version="1.0" encoding="UTF-8" standalone="no"?>
<svg xmlns:ffdec="https://www.free-decompiler.com/flash" xmlns:xlink="http://www.w3.org/1999/xlink" ffdec:objectType="text" height="20.8px" width="108.0px" xmlns="http://www.w3.org/2000/svg">
  <g transform="matrix(1.0, 0.0, 0.0, 1.0, 2.0, 2.0)">
    <g transform="matrix(1.0, 0.0, 0.0, 1.0, 0.0, 0.0)">
      <use fill="#ffffff" height="20.8" transform="matrix(0.0137, 0.0, 0.0, 0.0137, 0.0, 10.85)" width="108.0" xlink:href="#font_Si_Kancil_R0"/>
      <use fill="#ffffff" height="20.8" transform="matrix(0.0137, 0.0, 0.0, 0.0137, 7.7, 10.85)" width="108.0" xlink:href="#font_Si_Kancil_G0"/>
      <use fill="#ffffff" height="20.8" transform="matrix(0.0137, 0.0, 0.0, 0.0137, 15.7, 10.85)" width="108.0" xlink:href="#font_Si_Kancil_B0"/>
    </g>
    <g transform="matrix(1.0, 0.0, 0.0, 1.0, 0.0, 0.0)">
      <use fill="#ffffff" height="20.8" transform="matrix(0.0137, 0.0, 0.0, 0.0137, 27.2, 10.85)" width="108.0" xlink:href="#font_Si_Kancil_20"/>
      <use fill="#ffffff" height="20.8" transform="matrix(0.0137, 0.0, 0.0, 0.0137, 33.9, 10.85)" width="108.0" xlink:href="#font_Si_Kancil_50"/>
      <use fill="#ffffff" height="20.8" transform="matrix(0.0137, 0.0, 0.0, 0.0137, 40.95, 10.85)" width="108.0" xlink:href="#font_Si_Kancil_50"/>
      <use fill="#ffffff" height="20.8" transform="matrix(0.0137, 0.0, 0.0, 0.0137, 48.0, 10.85)" width="108.0" xlink:href="#font_Si_Kancil__1"/>
      <use fill="#ffffff" height="20.8" transform="matrix(0.0137, 0.0, 0.0, 0.0137, 51.75, 10.85)" width="108.0" xlink:href="#font_Si_Kancil_20"/>
      <use fill="#ffffff" height="20.8" transform="matrix(0.0137, 0.0, 0.0, 0.0137, 58.45, 10.85)" width="108.0" xlink:href="#font_Si_Kancil_50"/>
      <use fill="#ffffff" height="20.8" transform="matrix(0.0137, 0.0, 0.0, 0.0137, 65.5, 10.85)" width="108.0" xlink:href="#font_Si_Kancil_50"/>
      <use fill="#ffffff" height="20.8" transform="matrix(0.0137, 0.0, 0.0, 0.0137, 72.55, 10.85)" width="108.0" xlink:href="#font_Si_Kancil__1"/>
      <use fill="#ffffff" height="20.8" transform="matrix(0.0137, 0.0, 0.0, 0.0137, 76.3, 10.85)" width="108.0" xlink:href="#font_Si_Kancil_20"/>
      <use fill="#ffffff" height="20.8" transform="matrix(0.0137, 0.0, 0.0, 0.0137, 83.0, 10.85)" width="108.0" xlink:href="#font_Si_Kancil_50"/>
      <use fill="#ffffff" height="20.8" transform="matrix(0.0137, 0.0, 0.0, 0.0137, 90.05, 10.85)" width="108.0" xlink:href="#font_Si_Kancil_50"/>
    </g>
  </g>
  <defs>
    <g id="font_Si_Kancil_R0">
      <path d="M194.5 -554.0 Q195.5 -554.0 195.5 -554.5 195.5 -555.0 196.5 -555.0 L214.5 -555.0 Q224.0 -555.0 233.0 -553.0 L268.5 -550.0 Q284.5 -549.0 298.5 -546.0 313.0 -542.5 327.0 -536.5 340.5 -530.5 356.0 -518.0 382.5 -495.5 380.0 -471.0 377.5 -446.5 359.0 -425.0 340.5 -403.5 314.0 -387.5 287.5 -371.5 268.0 -366.5 251.5 -362.5 236.0 -361.0 L203.5 -357.5 Q197.5 -455.5 194.5 -554.0 M257.5 -238.5 Q274.0 -228.5 299.5 -203.5 325.0 -178.0 350.0 -148.0 374.5 -118.0 395.0 -88.5 415.5 -59.5 421.5 -42.0 436.0 -11.5 459.5 -2.5 483.0 6.0 503.0 -1.5 523.0 -9.0 534.0 -31.5 545.5 -54.5 536.0 -86.0 528.0 -105.5 512.5 -130.5 497.0 -155.5 477.5 -183.0 457.5 -210.0 435.0 -236.5 412.5 -263.0 389.5 -285.5 394.0 -287.5 397.0 -291.0 400.0 -294.0 404.0 -297.0 426.5 -316.5 449.5 -345.0 472.5 -374.0 488.0 -406.0 503.5 -438.5 505.5 -472.5 507.5 -507.0 489.0 -539.5 479.0 -558.0 467.5 -575.5 456.5 -593.0 442.0 -607.0 422.5 -626.5 386.0 -643.0 350.0 -659.5 307.5 -668.5 265.0 -678.0 223.0 -679.0 181.0 -680.0 150.0 -667.5 126.5 -676.0 102.5 -662.0 78.5 -648.0 71.5 -612.5 73.5 -471.0 83.0 -330.5 92.0 -190.5 94.0 -48.0 98.0 -15.5 117.0 0.5 136.0 16.5 157.5 16.0 179.0 15.5 196.0 -2.0 213.5 -19.5 215.5 -53.0 213.5 -145.5 209.5 -235.5 L232.5 -237.5 Q244.5 -238.5 255.5 -240.5 255.5 -238.5 257.5 -238.5" fill-rule="evenodd" stroke="none"/>
    </g>
    <g id="font_Si_Kancil_G0">
      <path d="M342.0 -199.5 L399.5 -199.5 397.5 -166.0 Q396.5 -149.5 396.5 -132.0 394.0 -130.0 391.5 -129.5 389.0 -129.0 387.0 -127.0 361.5 -127.0 333.5 -129.5 305.0 -132.0 281.5 -140.5 244.5 -153.5 220.0 -182.0 195.5 -210.0 182.0 -246.0 168.0 -281.5 165.5 -320.5 163.0 -359.5 170.0 -393.0 182.5 -451.5 214.5 -487.0 247.0 -522.0 305.0 -527.5 328.5 -529.5 347.0 -528.5 365.5 -527.5 386.0 -514.0 417.0 -499.5 440.5 -507.0 464.0 -514.0 474.5 -532.5 485.5 -551.0 481.0 -575.5 476.0 -600.0 448.5 -619.5 404.5 -648.0 348.5 -653.0 293.0 -657.5 239.5 -640.5 186.5 -623.5 142.5 -588.5 98.5 -553.0 79.0 -504.0 33.0 -386.0 46.0 -284.5 59.5 -183.5 143.5 -86.0 162.0 -65.5 188.5 -48.0 215.0 -30.5 241.5 -23.5 257.0 -20.5 281.5 -15.0 306.0 -9.0 334.5 -6.0 362.5 -3.0 390.0 -4.0 418.0 -5.0 438.5 -14.5 450.5 -12.5 465.0 -15.0 479.0 -17.5 494.5 -26.5 512.0 -44.0 518.0 -67.5 520.0 -77.0 521.0 -102.0 522.0 -127.0 523.5 -155.0 524.5 -183.5 524.0 -207.5 523.5 -231.5 522.0 -239.5 520.0 -253.0 515.0 -267.5 510.0 -281.5 500.5 -291.0 485.5 -306.0 467.0 -313.0 448.5 -319.5 428.0 -321.5 407.5 -323.5 387.0 -322.5 366.5 -321.5 347.0 -321.5 313.5 -319.5 296.0 -302.0 278.5 -284.5 278.0 -263.0 277.5 -241.5 293.5 -222.5 309.5 -204.0 342.0 -199.5" fill-rule="evenodd" stroke="none"/>
    </g>
    <g id="font_Si_Kancil_B0">
      <path d="M184.5 -528.5 Q200.5 -526.5 217.0 -523.0 233.5 -519.0 247.0 -511.5 260.0 -504.0 267.5 -491.0 274.5 -478.0 271.5 -458.5 269.5 -437.0 256.0 -413.0 242.5 -389.0 220.0 -380.0 213.0 -377.0 206.5 -376.5 L191.5 -375.0 Q189.5 -413.5 188.0 -451.5 186.5 -489.5 184.5 -528.5 M199.5 -242.5 L220.5 -241.0 Q230.5 -240.5 241.5 -237.5 263.0 -232.5 289.0 -219.5 314.5 -207.0 327.0 -191.5 340.0 -176.0 332.0 -162.0 323.5 -147.5 276.5 -138.0 259.0 -135.0 240.5 -133.5 L205.0 -131.0 203.0 -187.0 Q201.5 -215.0 199.5 -242.5 M61.5 -598.0 Q63.5 -457.5 73.5 -319.0 83.0 -180.0 85.0 -39.0 88.0 -11.5 103.0 4.0 118.0 19.5 135.0 23.5 152.5 27.5 170.5 19.5 188.5 11.5 197.5 -8.0 L252.0 -13.5 Q273.5 -15.5 292.5 -19.0 311.5 -22.5 332.0 -29.0 352.5 -36.0 382.0 -48.0 414.0 -61.5 433.0 -90.0 452.5 -119.0 458.0 -152.0 463.0 -185.5 453.5 -218.5 444.5 -252.0 419.0 -275.5 400.5 -293.0 382.5 -305.0 364.5 -317.5 347.0 -326.5 369.5 -354.5 382.0 -389.5 394.5 -425.0 395.5 -461.5 396.5 -497.5 384.5 -532.0 373.0 -566.5 347.0 -592.0 329.0 -610.5 309.0 -620.5 289.0 -631.0 268.0 -637.0 247.0 -643.0 224.0 -646.0 L176.0 -652.5 Q160.0 -650.0 151.5 -648.0 139.5 -655.5 125.0 -656.5 110.5 -657.5 98.0 -650.5 85.0 -644.0 75.5 -631.0 65.5 -617.5 61.5 -598.0" fill-rule="evenodd" stroke="none"/>
    </g>
    <g id="font_Si_Kancil_20">
      <path d="M126.0 15.5 Q161.0 16.5 197.0 20.0 233.5 23.5 269.5 24.5 305.0 25.5 340.0 20.5 375.0 15.5 407.5 -2.0 436.0 -18.5 443.0 -42.5 449.5 -66.5 440.5 -86.0 431.0 -105.5 408.0 -114.5 385.0 -124.0 353.5 -111.5 323.5 -96.5 288.5 -95.0 253.0 -94.0 217.0 -98.5 253.0 -146.5 293.5 -201.5 334.0 -257.0 366.5 -313.5 399.5 -369.5 419.0 -425.0 438.5 -480.5 432.0 -529.5 431.0 -541.5 425.5 -557.0 420.0 -572.5 411.0 -586.5 402.5 -601.0 391.0 -613.0 380.0 -624.5 367.5 -631.0 344.0 -642.0 310.5 -649.0 276.5 -656.5 239.5 -657.0 203.0 -657.5 166.0 -650.0 129.0 -643.0 100.0 -626.5 70.5 -610.5 52.5 -584.0 35.0 -558.0 35.0 -520.0 39.0 -488.5 56.5 -472.5 73.5 -456.5 94.5 -456.0 115.5 -455.5 133.5 -470.5 151.5 -485.5 155.5 -515.0 L155.5 -512.5 156.5 -517.0 Q172.0 -528.5 190.5 -532.0 209.0 -535.5 228.5 -534.5 248.0 -533.5 267.0 -529.5 285.5 -525.5 301.0 -521.0 309.5 -507.0 306.0 -487.0 303.0 -467.0 295.0 -447.0 286.5 -427.0 277.0 -409.0 267.5 -391.0 261.0 -381.0 217.0 -303.0 162.5 -232.5 107.5 -162.0 58.5 -86.0 45.0 -63.5 46.0 -44.0 47.0 -24.5 56.5 -10.0 65.5 4.0 82.0 11.0 98.5 17.5 115.5 13.5 118.0 13.5 126.0 15.5" fill-rule="evenodd" stroke="none"/>
    </g>
    <g id="font_Si_Kancil_50">
      <path d="M380.0 -647.5 Q363.0 -655.5 335.0 -658.0 307.5 -660.5 277.0 -660.5 246.0 -660.5 215.0 -659.0 L158.0 -656.5 Q134.5 -671.0 110.5 -663.5 86.0 -656.5 75.0 -632.0 60.5 -615.5 61.5 -594.5 62.5 -573.5 77.0 -557.0 80.0 -509.0 82.0 -456.0 84.0 -403.5 81.0 -351.0 80.0 -329.5 86.0 -312.5 92.5 -295.0 104.5 -285.0 117.0 -275.5 135.0 -274.5 153.0 -273.5 174.5 -285.5 197.0 -286.5 218.0 -286.0 239.0 -285.5 262.5 -279.5 273.5 -276.5 283.5 -271.5 293.0 -266.0 302.5 -260.0 327.0 -242.5 336.5 -222.0 346.5 -201.5 343.5 -181.5 340.5 -162.0 327.0 -144.0 313.5 -126.0 293.5 -114.5 273.5 -103.5 249.0 -100.5 224.5 -97.0 198.0 -105.5 180.5 -110.5 168.5 -115.0 157.0 -120.0 152.0 -137.0 134.5 -160.5 113.5 -168.0 92.5 -175.0 74.0 -168.0 55.5 -160.5 44.5 -141.5 34.0 -122.0 37.0 -93.0 40.0 -85.0 43.5 -74.0 47.0 -63.5 52.5 -55.5 67.5 -32.5 100.0 -14.5 132.5 4.0 170.0 15.0 208.0 25.5 245.0 26.5 282.0 27.5 307.5 16.5 346.5 -1.0 381.0 -24.5 416.0 -48.0 438.5 -87.0 467.5 -136.0 467.5 -183.0 467.5 -229.5 447.5 -269.5 427.5 -309.0 391.0 -341.0 354.5 -372.5 308.5 -393.0 300.5 -396.5 285.0 -399.5 269.5 -402.5 254.0 -404.5 L226.0 -407.5 214.5 -408.5 207.0 -409.0 200.0 -409.5 Q202.0 -442.5 203.0 -473.0 204.0 -504.0 202.0 -534.5 223.5 -535.5 244.5 -535.5 L287.0 -535.5 292.5 -535.5 305.5 -535.0 320.0 -534.5 330.0 -534.5 Q334.0 -532.5 336.0 -532.5 365.0 -529.5 384.5 -540.0 403.5 -551.0 411.0 -569.5 418.0 -588.0 411.0 -609.0 403.5 -630.0 380.0 -647.5" fill-rule="evenodd" stroke="none"/>
    </g>
    <g id="font_Si_Kancil__1">
      <path d="M71.5 -96.5 L73.5 -67.0 Q74.5 -52.0 74.5 -37.0 L74.5 -19.5 Q74.5 -11.5 73.5 -2.0 73.5 -1.0 71.5 1.0 53.0 16.5 49.0 36.5 45.0 56.5 54.0 73.0 63.5 90.0 83.5 100.5 103.0 110.5 132.0 104.5 164.0 92.0 177.5 68.5 191.5 45.0 195.5 16.0 199.5 -13.5 197.0 -44.0 194.5 -74.5 193.5 -101.5 185.5 -129.0 167.5 -142.5 149.5 -155.5 130.0 -155.0 110.5 -154.5 94.0 -140.0 77.5 -125.0 71.5 -96.5" fill-rule="evenodd" stroke="none"/>
    </g>
  </defs>
</svg>
