<?xml version="1.0" encoding="UTF-8" standalone="no"?>
<svg xmlns:ffdec="https://www.free-decompiler.com/flash" xmlns:xlink="http://www.w3.org/1999/xlink" ffdec:objectType="shape" height="102.05px" width="170.65px" xmlns="http://www.w3.org/2000/svg">
  <g transform="matrix(1.0, 0.0, 0.0, 1.0, 0.3, -0.05)">
    <path d="M168.4 35.65 L168.35 35.45 168.05 33.9 167.85 33.2 Q168.25 25.7 168.05 21.6 L167.85 18.45 167.8 15.3 167.95 13.3 167.9 5.05 167.7 4.35 167.65 2.8 167.7 2.25 Q165.15 2.05 160.15 2.35 L155.9 2.55 142.95 2.6 143.0 2.75 140.85 2.75 140.9 2.6 139.15 2.6 138.65 2.6 128.8 2.65 128.45 2.65 117.5 2.9 117.0 2.9 114.85 2.95 114.9 3.05 114.75 3.05 113.35 3.05 113.3 3.1 112.95 3.2 112.95 3.1 113.0 2.95 110.7 3.0 108.1 3.05 91.75 2.9 88.1 2.85 87.6 2.8 85.6 2.8 84.8 2.85 84.9 2.65 84.6 2.65 83.95 2.65 59.25 2.55 59.0 2.5 56.3 2.45 55.95 2.55 41.95 2.45 Q36.7 2.35 32.4 2.5 L31.85 2.85 30.85 2.95 29.4 2.95 28.2 2.65 22.7 2.9 Q16.9 3.15 5.3 2.85 L3.55 2.85 Q3.1 2.45 2.6 2.65 L2.6 3.1 2.55 3.95 2.35 4.4 2.35 5.0 2.3 7.05 2.25 8.6 2.2 9.6 2.1 9.95 2.15 10.6 2.1 31.9 2.05 32.1 Q1.9 34.35 2.05 36.6 L2.1 36.95 2.25 37.25 2.25 51.65 2.35 54.95 2.55 57.45 2.65 59.45 2.3 69.25 Q1.95 78.35 2.0 84.45 2.0 89.6 2.35 99.8 L5.05 99.8 11.65 99.65 12.9 99.8 Q43.45 99.05 74.7 99.6 L80.05 99.7 80.75 99.6 83.3 99.45 84.15 99.5 84.4 99.65 Q111.55 99.1 139.3 99.6 L144.65 99.7 145.35 99.6 147.9 99.45 148.75 99.5 149.05 99.7 Q153.35 100.0 159.8 99.9 L168.1 99.9 168.1 97.35 168.15 96.9 167.75 84.8 Q167.65 77.35 168.1 65.2 L168.25 61.7 Q168.1 61.3 168.1 60.7 L168.1 50.35 168.15 49.65 168.1 49.05 168.3 42.55 168.4 40.25 168.4 35.65 M1.4 1.0 L2.65 0.8 8.75 0.85 15.35 0.7 16.6 0.85 Q47.15 0.1 78.4 0.65 L83.75 0.75 84.45 0.65 87.0 0.5 87.85 0.55 88.15 0.75 Q92.45 1.05 98.9 0.95 L127.75 0.85 127.75 0.8 128.75 0.65 133.8 0.6 137.3 0.6 137.3 0.5 139.1 0.55 Q147.15 0.8 155.9 0.45 L161.7 0.2 Q166.55 -0.1 169.0 0.25 L169.5 0.8 170.0 1.2 170.0 14.8 169.95 14.8 169.95 21.3 170.05 31.8 170.25 32.0 170.3 32.1 170.3 57.05 170.35 60.1 170.3 60.15 170.05 66.8 Q169.7 75.9 169.75 82.0 169.75 87.0 170.1 96.8 L170.1 97.3 170.1 100.65 169.95 101.65 Q169.65 102.1 169.05 102.1 L168.65 102.0 152.65 101.85 149.0 101.8 148.5 101.75 146.5 101.75 145.7 101.8 145.8 101.6 145.5 101.6 144.85 101.6 120.15 101.5 119.9 101.45 117.2 101.4 116.85 101.5 104.4 101.4 104.4 102.0 90.3 101.9 88.05 101.85 83.6 101.85 Q77.8 102.1 66.2 101.8 L65.7 101.8 65.7 101.55 55.55 101.5 55.3 101.45 52.6 101.4 52.25 101.5 38.25 101.4 Q33.0 101.3 28.7 101.45 L28.15 101.8 27.15 101.9 25.7 101.9 24.5 101.6 19.0 101.85 Q13.25 102.1 1.9 101.8 L1.25 102.0 Q0.5 101.85 0.4 100.4 L0.0 87.25 Q-0.1 79.8 0.35 67.65 L0.6 60.35 0.45 59.4 0.55 57.9 0.35 55.95 Q0.2 54.95 0.2 52.95 L0.2 37.7 0.0 36.45 0.0 36.0 -0.1 35.2 Q-0.45 23.1 0.1 15.6 -0.3 15.15 -0.3 14.1 L-0.25 6.1 -0.05 2.45 Q0.15 1.5 0.55 1.25 L1.25 1.1 1.4 1.0" fill="#ffffff" fill-rule="evenodd" stroke="none"/>
  </g>
</svg>
